<svg xmlns="http://www.w3.org/2000/svg" id="generator" viewBox="0 0 24 24">
	<title>Generator</title>
	<path d="M 12 0 C 5.373 0 0 5.373 0 12 C 0 18.627 5.373 24 12 24 C 18.627 24 24 18.627 24 12 C 24 5.373 18.627 0 12 0 Z M 11.321 13.882 L 12.75 13.897 L 13 22.2 L 11 22.2 L 11.321 13.882 Z M 2.094 17.837 C 1.846 17.526 2.079 17.054 2.891 16.239 C 3.7119999999999997 15.413 4.606 14.742 6.001 13.901 C 7.191 13.182 8.906 12.38 9.849 12.104 L 10.145 12.016 L 10.175 11.792 C 10.223 11.443 10.466 11.01 10.772 10.728 C 11.015 10.505 11.039 10.466 11.015 10.325 C 11.001 10.238 10.952 9.985 10.908 9.757 C 10.5 7.546 10.578 4.237 11.078 2.274 C 11.321 1.3359999999999999 11.72 0.6699999999999997 12.05 0.6699999999999997 C 12.38 0.6699999999999997 12.779 1.3359999999999999 13.022 2.289 C 13.391 3.761 13.542 5.913 13.41 7.872 C 13.357 8.649000000000001 13.211 9.733 13.104 10.199 L 13.036 10.471 L 13.318 10.719 C 13.634 11.005 13.877 11.433 13.926 11.798 L 13.955 12.031 L 14.455 12.206 C 16.831 13.027 19.8 14.839 21.234 16.345 C 22.016 17.167 22.186 17.652 21.802 17.939 C 21.68 18.027 21.603 18.041 21.219 18.036 C 19.489 18.007 15.777 16.156 13.406 14.144 L 12.988 13.79 L 12.75 13.897 L 11.321 13.882 L 11.054 13.755 L 10.617 14.129 C 8.692 15.767 5.792 17.361 3.819 17.871 C 2.842 18.124 2.308 18.114 2.094 17.837 Z"/>
</svg>
