<svg xmlns="http://www.w3.org/2000/svg" id="power-plant" viewBox="0 0 24 24">
	<title>Power plant</title>
	<path d="M 12 0 C 5.373 0 0 5.373 0 12 C 0 18.627 5.373 24 12 24 C 18.627 24 24 18.627 24 12 C 24 5.373 18.627 0 12 0 Z M 21 19 L 3 19 L 3 17.5 L 3.75 17.5 C 5.997 13.821 6.709 7.761 6.75 5.5 L 12 5.5 C 12.041 7.705 12.753 13.736 15 17.5 L 16.307 17.5 L 15.825 16.681 C 14.929 15.072 14.364 13.271 13.949 11.487 C 14.151 10.243 14.238 9.158 14.25 8.5 L 18 8.5 C 18.03 10.153 18.566 14.676 20.25 17.5 L 21 17.5 L 21 19 Z M 16.978 4.814 C 17.156 4.422 17.548 4.15 18 4.15 C 18.453 4.15 18.844 4.422 19.023 4.814 C 19.138 4.754 19.268 4.721 19.406 4.721 C 19.871 4.721 20.25 5.103 20.25 5.576 C 20.25 6.046 19.871 6.431 19.406 6.431 C 19.268 6.431 19.138 6.396 19.023 6.336 C 18.844 6.728 18.453 7 18 7 C 17.548 7 17.156 6.728 16.978 6.336 C 16.863 6.396 16.731 6.431 16.594 6.431 C 16.128 6.431 15.75 6.046 15.75 5.576 C 15.75 5.103 16.128 4.721 16.594 4.721 C 16.731 4.721 16.863 4.754 16.978 4.814 Z M 9 4.75 C 9.149 3.113 10.339 1.75 11.625 1.75 C 11.809 1.75 11.983 1.795 12.138 1.873 C 12.374 1.358 12.896 1 13.5 1 C 14.104 1 14.625 1.358 14.863 1.873 C 15.017 1.795 15.191 1.75 15.374 1.75 C 15.996 1.75 16.5 2.254 16.5 2.875 C 16.5 3.497 15.996 4 15.374 4 C 15.191 4 15.017 3.956 14.863 3.877 C 14.625 4.392 14.104 4.75 13.5 4.75 C 11.742 4.75 10.709 2.536 9.75 4.75 L 9 4.75 Z M 8.3 16.5 L 9.05 14.25 L 6.8 14.25 L 10.3 10.5 L 9.55 12.75 L 11.8 12.75 L 8.3 16.5 Z"/>
</svg>